# Blender v3.4.1 OBJ File: 'Tiny_Treats_Baked_Goods_ASSETS_EXPORT.blend'
# www.blender.org
mtllib baguette_slice.mtl
o baguette_slice
v 0.000030 0.116973 0.052713
v 0.123921 0.219983 0.033731
v -0.124248 0.220131 0.033731
v -0.157766 0.036884 0.033731
v 0.172727 0.160061 0.033731
v -0.074017 0.253520 0.033731
v -0.053851 -0.004490 0.033731
v -0.185439 0.093417 0.033731
v 0.105835 0.006351 0.033731
v -0.105847 0.006351 0.033731
v 0.185210 0.093417 0.033731
v -0.000000 -0.005994 0.033731
v -0.000276 0.264998 0.033731
v -0.172934 0.160060 0.033731
v 0.053855 -0.004490 0.033731
v 0.073536 0.253575 0.033731
v 0.157595 0.036884 0.033731
v 0.067119 0.236422 0.052713
v 0.113686 0.208625 0.052713
v -0.112255 0.206735 0.052713
v -0.067300 0.236414 0.052713
v 0.155974 0.152188 0.052713
v -0.156313 0.152419 0.052713
v -0.143907 0.049378 0.052713
v -0.167625 0.096138 0.052713
v -0.099399 0.022396 0.052713
v -0.000754 0.249655 0.052713
v 0.000063 0.011970 0.052713
v -0.051828 0.013289 0.052713
v 0.099373 0.022396 0.052713
v 0.051832 0.013290 0.052713
v 0.143724 0.049363 0.052713
v 0.167403 0.096133 0.052713
v 0.000030 0.116973 -0.052713
v 0.123921 0.219983 -0.033731
v -0.124248 0.220131 -0.033731
v -0.157766 0.036884 -0.033731
v 0.172727 0.160061 -0.033731
v -0.074017 0.253520 -0.033731
v -0.053851 -0.004490 -0.033731
v -0.185439 0.093417 -0.033731
v 0.105835 0.006351 -0.033731
v -0.105847 0.006351 -0.033731
v 0.185210 0.093417 -0.033731
v -0.000000 -0.005994 -0.033731
v -0.000276 0.264998 -0.033731
v -0.172934 0.160060 -0.033731
v 0.053855 -0.004490 -0.033731
v 0.073536 0.253575 -0.033731
v 0.157595 0.036884 -0.033731
v 0.067119 0.236422 -0.052713
v 0.113686 0.208625 -0.052713
v -0.112255 0.206735 -0.052713
v -0.067300 0.236414 -0.052713
v 0.155974 0.152188 -0.052713
v -0.156313 0.152419 -0.052713
v -0.143907 0.049378 -0.052713
v -0.167625 0.096138 -0.052713
v -0.099399 0.022396 -0.052713
v -0.000754 0.249655 -0.052713
v 0.000063 0.011970 -0.052713
v -0.051828 0.013289 -0.052713
v 0.099373 0.022396 -0.052713
v 0.051832 0.013290 -0.052713
v 0.143724 0.049363 -0.052713
v 0.167403 0.096133 -0.052713
vt 0.708130 0.811894
vt 0.708130 0.811894
vt 0.699750 0.817476
vt 0.699750 0.817476
vt 0.687473 0.819374
vt 0.687473 0.819374
vt 0.687519 0.924135
vt 0.687519 0.924135
vt 0.696476 0.923885
vt 0.696476 0.923885
vt 0.658756 0.801937
vt 0.658756 0.801937
vt 0.656676 0.837739
vt 0.656676 0.837739
vt 0.661279 0.917010
vt 0.661279 0.917010
vt 0.705121 0.922083
vt 0.705121 0.922083
vt 0.675208 0.817467
vt 0.675208 0.817467
vt 0.666854 0.811919
vt 0.666854 0.811919
vt 0.669914 0.922083
vt 0.669914 0.922083
vt 0.716247 0.801937
vt 0.716247 0.801937
vt 0.713730 0.917010
vt 0.713730 0.917010
vt 0.718323 0.837739
vt 0.718323 0.837739
vt 0.678562 0.923885
vt 0.678562 0.923885
vt 0.698682 0.814626
vt 0.706427 0.810007
vt 0.668848 0.809693
vt 0.676325 0.814624
vt 0.713461 0.800629
vt 0.661520 0.800668
vt 0.663584 0.914934
vt 0.659639 0.838191
vt 0.670986 0.919417
vt 0.687393 0.816824
vt 0.687529 0.921150
vt 0.678899 0.920930
vt 0.704047 0.919417
vt 0.696140 0.920930
vt 0.711423 0.914937
vt 0.715362 0.838190
vt 0.562477 0.380126
vt 0.543573 0.411772
vt 0.551318 0.407154
vt 0.573675 0.407155
vt 0.581152 0.412086
vt 0.536540 0.421150
vt 0.588480 0.421111
vt 0.590362 0.383588
vt 0.586417 0.306845
vt 0.579014 0.302362
vt 0.562607 0.404955
vt 0.571102 0.300849
vt 0.562471 0.300630
vt 0.553861 0.300849
vt 0.545954 0.302362
vt 0.538577 0.306843
vt 0.534639 0.383589
vt 0.706427 0.810007
vt 0.698682 0.814626
vt 0.668848 0.809693
vt 0.676325 0.814624
vt 0.713461 0.800629
vt 0.661520 0.800668
vt 0.659639 0.838191
vt 0.663584 0.914934
vt 0.670986 0.919417
vt 0.687393 0.816824
vt 0.687529 0.921150
vt 0.678899 0.920930
vt 0.704047 0.919417
vt 0.696140 0.920930
vt 0.711423 0.914937
vt 0.715362 0.838190
vt 0.562477 0.380126
vt 0.551318 0.407154
vt 0.543573 0.411772
vt 0.581152 0.412086
vt 0.573675 0.407155
vt 0.536540 0.421150
vt 0.588480 0.421111
vt 0.586417 0.306845
vt 0.590362 0.383588
vt 0.579014 0.302362
vt 0.562607 0.404955
vt 0.562471 0.300630
vt 0.571102 0.300849
vt 0.545954 0.302362
vt 0.553861 0.300849
vt 0.538577 0.306843
vt 0.534639 0.383589
vn 0.6309 0.6957 0.3436
vn 0.6309 0.6957 -0.3436
vn 0.3396 0.8771 -0.3398
vn 0.3396 0.8771 0.3398
vn 0.0002 0.9390 -0.3439
vn 0.0002 0.9390 0.3439
vn -0.0000 -0.9303 0.3669
vn -0.0000 -0.9303 -0.3669
vn 0.1071 -0.9268 -0.3598
vn 0.1071 -0.9268 0.3598
vn -0.8490 0.3934 0.3529
vn -0.8490 0.3934 -0.3529
vn -0.9273 -0.1266 -0.3522
vn -0.9273 -0.1266 0.3522
vn -0.6871 -0.6358 -0.3516
vn -0.6871 -0.6358 0.3516
vn 0.3376 -0.8721 -0.3541
vn 0.3376 -0.8721 0.3541
vn -0.3415 0.8729 -0.3485
vn -0.3415 0.8729 0.3485
vn -0.6278 0.6907 0.3589
vn -0.6278 0.6907 -0.3589
vn -0.3370 -0.8724 -0.3541
vn -0.3370 -0.8724 0.3541
vn 0.8518 0.3941 0.3452
vn 0.8518 0.3941 -0.3452
vn 0.6878 -0.6351 0.3516
vn 0.6878 -0.6351 -0.3516
vn 0.9272 -0.1263 -0.3528
vn 0.9272 -0.1263 0.3528
vn -0.1071 -0.9269 -0.3598
vn -0.1071 -0.9269 0.3598
vn 0.1609 0.4158 0.8951
vn 0.3028 0.3347 0.8924
vn -0.2867 0.3153 0.9047
vn -0.1623 0.4094 0.8978
vn 0.4063 0.1861 0.8946
vn -0.4010 0.1868 0.8968
vn -0.3274 -0.3046 0.8945
vn -0.4508 -0.0600 0.8906
vn -0.1561 -0.4065 0.9002
vn -0.0015 0.4506 0.8927
vn 0.0000 -0.4016 0.9158
vn -0.0467 -0.4131 0.9095
vn 0.1564 -0.4065 0.9002
vn 0.0467 -0.4131 0.9095
vn 0.3277 -0.3042 0.8945
vn 0.4504 -0.0596 0.8908
vn -0.0000 0.0000 1.0000
vn 0.3028 0.3347 -0.8924
vn 0.1609 0.4158 -0.8951
vn -0.2867 0.3153 -0.9047
vn -0.1623 0.4094 -0.8978
vn 0.4063 0.1861 -0.8946
vn -0.4010 0.1868 -0.8968
vn -0.4508 -0.0600 -0.8906
vn -0.3274 -0.3046 -0.8945
vn -0.1561 -0.4065 -0.9002
vn -0.0015 0.4506 -0.8927
vn 0.0000 -0.4016 -0.9158
vn -0.0467 -0.4131 -0.9095
vn 0.1564 -0.4065 -0.9002
vn 0.0467 -0.4131 -0.9095
vn 0.3277 -0.3042 -0.8945
vn 0.4504 -0.0596 -0.8908
vn -0.0000 0.0000 -1.0000
usemtl tiny_treats_1
s 1
f 2/1/1 35/2/2 49/3/3 16/4/4
f 16/4/4 49/3/3 46/5/5 13/6/6
f 12/7/7 45/8/8 48/9/9 15/10/10
f 14/11/11 47/12/12 41/13/13 8/14/14
f 8/14/14 41/13/13 37/15/15 4/16/16
f 15/10/10 48/9/9 42/17/17 9/18/18
f 13/6/6 46/5/5 39/19/19 6/20/20
f 3/21/21 36/22/22 47/12/12 14/11/11
f 4/16/16 37/15/15 43/23/23 10/24/24
f 5/25/25 38/26/26 35/2/2 2/1/1
f 17/27/27 50/28/28 44/29/29 11/30/30
f 10/24/24 43/23/23 40/31/31 7/32/32
f 7/32/32 40/31/31 45/8/8 12/7/7
f 9/18/18 42/17/17 50/28/28 17/27/27
f 2/1/1 16/4/4 18/33/33 19/34/34
f 20/35/35 21/36/36 6/20/20 3/21/21
f 5/25/25 2/1/1 19/34/34 22/37/37
f 23/38/38 20/35/35 3/21/21 14/11/11
f 8/14/14 4/16/16 24/39/39 25/40/40
f 26/41/41 24/39/39 4/16/16 10/24/24
f 13/6/6 6/20/20 21/36/36 27/42/42
f 28/43/43 29/44/44 7/32/32 12/7/7
f 10/24/24 7/32/32 29/44/44 26/41/41
f 30/45/45 31/46/46 15/10/10 9/18/18
f 31/46/46 28/43/43 12/7/7 15/10/10
f 9/18/18 17/27/27 32/47/47 30/45/45
f 27/42/42 18/33/33 16/4/4 13/6/6
f 33/48/48 32/47/47 17/27/27 11/30/30
f 25/40/40 23/38/38 14/11/11 8/14/14
f 11/30/30 5/25/25 22/37/37 33/48/48
f 6/20/20 39/19/19 36/22/22 3/21/21
f 1/49/49 19/50/34 18/51/33
f 1/49/49 21/52/36 20/53/35
f 1/49/49 22/54/37 19/50/34
f 1/49/49 20/53/35 23/55/38
f 1/49/49 25/56/40 24/57/39
f 1/49/49 24/57/39 26/58/41
f 1/49/49 27/59/42 21/52/36
f 1/49/49 29/60/44 28/61/43
f 1/49/49 26/58/41 29/60/44
f 1/49/49 31/62/46 30/63/45
f 1/49/49 28/61/43 31/62/46
f 1/49/49 30/63/45 32/64/47
f 1/49/49 18/51/33 27/59/42
f 1/49/49 32/64/47 33/65/48
f 1/49/49 23/55/38 25/56/40
f 1/49/49 33/65/48 22/54/37
f 35/2/2 52/66/50 51/67/51 49/3/3
f 53/68/52 36/22/22 39/19/19 54/69/53
f 38/26/26 55/70/54 52/66/50 35/2/2
f 56/71/55 47/12/12 36/22/22 53/68/52
f 41/13/13 58/72/56 57/73/57 37/15/15
f 59/74/58 43/23/23 37/15/15 57/73/57
f 46/5/5 60/75/59 54/69/53 39/19/19
f 61/76/60 45/8/8 40/31/31 62/77/61
f 43/23/23 59/74/58 62/77/61 40/31/31
f 63/78/62 42/17/17 48/9/9 64/79/63
f 64/79/63 48/9/9 45/8/8 61/76/60
f 42/17/17 63/78/62 65/80/64 50/28/28
f 60/75/59 46/5/5 49/3/3 51/67/51
f 66/81/65 44/29/29 50/28/28 65/80/64
f 58/72/56 41/13/13 47/12/12 56/71/55
f 44/29/29 66/81/65 55/70/54 38/26/26
f 34/82/66 51/83/51 52/84/50
f 34/82/66 53/85/52 54/86/53
f 34/82/66 52/84/50 55/87/54
f 34/82/66 56/88/55 53/85/52
f 34/82/66 57/89/57 58/90/56
f 34/82/66 59/91/58 57/89/57
f 34/82/66 54/86/53 60/92/59
f 34/82/66 61/93/60 62/94/61
f 34/82/66 62/94/61 59/91/58
f 34/82/66 63/95/62 64/96/63
f 34/82/66 64/96/63 61/93/60
f 34/82/66 65/97/64 63/95/62
f 34/82/66 60/92/59 51/83/51
f 34/82/66 66/98/65 65/97/64
f 34/82/66 58/90/56 56/88/55
f 34/82/66 55/87/54 66/98/65
f 11/30/30 44/29/29 38/26/26 5/25/25
