# Blender v3.4.1 OBJ File: 'Tiny_Treats_Baked_Goods_ASSETS_EXPORT.blend'
# www.blender.org
mtllib bread_roll.mtl
o bread_roll
v -0.143957 0.035815 0.143721
v -0.127764 0.211911 0.127565
v -0.143957 0.035815 -0.143721
v -0.127764 0.211911 -0.127565
v 0.143957 0.035815 0.143721
v 0.127764 0.211911 0.127565
v 0.143957 0.035815 -0.143721
v 0.127764 0.211911 -0.127565
v -0.169322 0.020036 -0.036107
v -0.169322 0.020036 0.036107
v -0.148203 0.058942 0.148227
v -0.150703 0.142376 0.150706
v -0.151976 0.235869 0.032328
v -0.151976 0.235869 -0.032328
v -0.150703 0.142376 -0.150706
v -0.148202 0.058942 -0.148227
v 0.036350 0.019704 -0.167983
v -0.036350 0.019704 -0.167983
v -0.032509 0.236375 -0.150783
v 0.032509 0.236375 -0.150783
v 0.150703 0.142376 -0.150706
v 0.148202 0.058942 -0.148227
v 0.169322 0.020036 0.036107
v 0.169322 0.020036 -0.036107
v 0.151975 0.235869 -0.032328
v 0.151975 0.235869 0.032328
v 0.150703 0.142376 0.150706
v 0.148202 0.058942 0.148227
v -0.036350 0.019704 0.167983
v 0.036350 0.019704 0.167983
v 0.032509 0.236375 0.150783
v -0.032509 0.236375 0.150783
v 0.037220 0.287712 -0.035724
v 0.037220 0.287712 0.035724
v -0.037220 0.287712 -0.035724
v -0.037220 0.287712 0.035724
v -0.040274 -0.011988 -0.038504
v -0.040274 -0.011988 0.038504
v 0.040274 -0.011988 -0.038504
v 0.040274 -0.011988 0.038504
v 0.034933 0.054541 0.198685
v -0.034933 0.054541 0.198685
v 0.035790 0.149642 0.202814
v -0.035790 0.149642 0.202814
v 0.198772 0.054724 -0.034973
v 0.198772 0.054724 0.034973
v 0.202827 0.149593 -0.035797
v 0.202827 0.149593 0.035797
v -0.034933 0.054541 -0.198685
v 0.034933 0.054541 -0.198685
v -0.035790 0.149642 -0.202814
v 0.035790 0.149642 -0.202814
v -0.198772 0.054724 0.034973
v -0.198772 0.054724 -0.034973
v -0.202827 0.149593 0.035797
v -0.202827 0.149593 -0.035797
v -0.158025 0.026754 0.105108
v -0.140330 0.181373 0.140318
v -0.140983 0.224885 -0.094932
v -0.105381 0.026578 -0.157346
v 0.095142 0.225133 -0.140416
v 0.158024 0.026754 -0.105108
v 0.140983 0.224885 0.094932
v 0.105381 0.026578 0.157346
v -0.095142 0.225133 0.140416
v -0.158024 0.026754 -0.105108
v -0.154728 0.102409 0.154727
v -0.140983 0.224885 0.094932
v -0.140330 0.181373 -0.140318
v -0.154727 0.102409 -0.154727
v 0.105381 0.026578 -0.157346
v -0.095142 0.225133 -0.140416
v 0.140330 0.181373 -0.140318
v 0.154727 0.102409 -0.154727
v 0.158024 0.026754 0.105108
v 0.140983 0.224885 -0.094932
v 0.140330 0.181373 0.140318
v 0.154727 0.102409 0.154727
v -0.105381 0.026578 0.157346
v 0.095142 0.225133 0.140416
v 0.034403 0.268301 0.105741
v 0.034403 0.268301 -0.105741
v -0.034403 0.268301 0.105741
v -0.034403 0.268301 -0.105741
v 0.108017 0.268097 -0.033632
v 0.108017 0.268097 0.033632
v -0.108017 0.268097 -0.033632
v -0.108017 0.268097 0.033632
v -0.037542 -0.001689 0.111857
v -0.037542 -0.001689 -0.111857
v 0.037542 -0.001689 0.111857
v 0.037542 -0.001689 -0.111857
v -0.114478 -0.001592 -0.036578
v -0.114478 -0.001592 0.036578
v 0.114478 -0.001592 -0.036578
v 0.114478 -0.001592 0.036578
v -0.103191 0.057100 0.180307
v 0.103190 0.057100 0.180307
v -0.105899 0.145111 0.183264
v 0.105899 0.145111 0.183264
v 0.036602 0.104356 0.209790
v -0.036602 0.104356 0.209790
v -0.000000 0.194320 0.183439
v 0.180330 0.057206 0.103259
v 0.180330 0.057206 -0.103259
v 0.183266 0.145089 0.105909
v 0.183266 0.145089 -0.105909
v 0.209790 0.104356 -0.036602
v 0.209790 0.104356 0.036602
v 0.183689 0.194023 -0.000000
v 0.103190 0.057100 -0.180307
v -0.103191 0.057100 -0.180307
v 0.105899 0.145111 -0.183264
v -0.105899 0.145111 -0.183264
v -0.036602 0.104356 -0.209790
v 0.036602 0.104356 -0.209790
v -0.000000 0.194320 -0.183439
v -0.180330 0.057206 -0.103259
v -0.180330 0.057206 0.103259
v -0.183266 0.145089 -0.105909
v -0.183266 0.145089 0.105909
v -0.209790 0.104356 0.036602
v -0.209790 0.104356 -0.036602
v -0.183689 0.194023 0.000000
v -0.167997 0.186412 -0.099365
v 0.099339 0.186559 -0.167896
v 0.167997 0.186412 0.099365
v -0.099339 0.186559 0.167896
v 0.107470 0.007055 0.106135
v -0.100456 0.252417 0.099379
v 0.100456 0.252417 0.099379
v 0.100456 0.252417 -0.099379
v -0.100456 0.252417 -0.099379
v -0.107470 0.007055 0.106135
v -0.107470 0.007055 -0.106135
v 0.107470 0.007055 -0.106135
v -0.108356 0.103133 0.188991
v 0.108356 0.103133 0.188991
v 0.099339 0.186559 0.167896
v 0.188991 0.103133 0.108356
v 0.188991 0.103133 -0.108356
v 0.167997 0.186412 -0.099365
v 0.108356 0.103133 -0.188991
v -0.108356 0.103133 -0.188991
v -0.099339 0.186559 -0.167896
v -0.188991 0.103133 -0.108356
v -0.188991 0.103133 0.108356
v -0.167997 0.186412 0.099365
v -0.000000 0.269479 0.000000
v -0.000000 0.257709 0.100581
v -0.000000 0.233350 0.145639
v -0.000000 0.233350 -0.145639
v -0.000000 0.257709 -0.100581
v 0.102773 0.257546 0.000000
v 0.146779 0.232925 0.000000
v -0.146779 0.232925 0.000000
v -0.102774 0.257546 -0.000000
v -0.000000 0.272163 -0.041653
v 0.042917 0.272091 0.000000
v -0.000000 0.272160 0.041747
v -0.043002 0.272087 -0.000000
vt 0.659222 0.858602
vt 0.662242 0.864513
vt 0.664718 0.863500
vt 0.662309 0.858002
vt 0.667246 0.828084
vt 0.668980 0.826623
vt 0.671066 0.824896
vt 0.669083 0.862830
vt 0.667447 0.857641
vt 0.696874 0.858608
vt 0.691226 0.864553
vt 0.706901 0.863520
vt 0.707936 0.858005
vt 0.696356 0.828151
vt 0.706239 0.826656
vt 0.711386 0.824896
vt 0.713369 0.862830
vt 0.715006 0.857641
vt 0.723231 0.858602
vt 0.720211 0.864513
vt 0.717735 0.863500
vt 0.720144 0.858002
vt 0.715207 0.828084
vt 0.713472 0.826623
vt 0.711386 0.824896
vt 0.713369 0.862830
vt 0.715006 0.857641
vt 0.685579 0.858608
vt 0.691226 0.864553
vt 0.675551 0.863520
vt 0.674516 0.858005
vt 0.686097 0.828151
vt 0.676214 0.826656
vt 0.671066 0.824896
vt 0.669083 0.862830
vt 0.667447 0.857641
vt 0.697581 0.992004
vt 0.709290 0.988890
vt 0.708184 0.986299
vt 0.697150 0.988919
vt 0.717944 0.982411
vt 0.716161 0.980399
vt 0.716161 0.963794
vt 0.713941 0.955940
vt 0.707855 0.963946
vt 0.707855 0.980451
vt 0.696962 0.982511
vt 0.685353 0.834982
vt 0.674182 0.832372
vt 0.675375 0.830286
vt 0.685798 0.832399
vt 0.667246 0.828084
vt 0.668980 0.826623
vt 0.708270 0.832372
vt 0.707077 0.830286
vt 0.697099 0.834982
vt 0.696655 0.832399
vt 0.696356 0.828151
vt 0.706239 0.826656
vt 0.685353 0.940489
vt 0.685798 0.937906
vt 0.691226 0.883056
vt 0.691226 0.883336
vt 0.707077 0.830286
vt 0.713472 0.826623
vt 0.696655 0.832399
vt 0.697099 0.834982
vt 0.708270 0.832372
vt 0.715207 0.828084
vt 0.684871 0.992004
vt 0.684871 0.992004
vt 0.697581 0.992004
vt 0.696356 0.933658
vt 0.691226 0.970059
vt 0.691226 0.879230
vt 0.697099 0.940489
vt 0.696655 0.937906
vt 0.691226 0.883056
vt 0.691226 0.883337
vt 0.686097 0.828151
vt 0.676214 0.826656
vt 0.675375 0.830286
vt 0.685798 0.832399
vt 0.674182 0.832372
vt 0.685353 0.834982
vt 0.673163 0.988890
vt 0.673163 0.988890
vt 0.664509 0.982411
vt 0.674268 0.986299
vt 0.666291 0.980399
vt 0.685302 0.988919
vt 0.685491 0.982511
vt 0.674598 0.980451
vt 0.674598 0.980451
vt 0.674268 0.986299
vt 0.666291 0.980399
vt 0.685491 0.982511
vt 0.685302 0.988919
vt 0.664509 0.982411
vt 0.691226 0.883530
vt 0.684689 0.883327
vt 0.686097 0.933658
vt 0.696962 0.982511
vt 0.697150 0.988919
vt 0.707855 0.980451
vt 0.708184 0.986299
vt 0.707855 0.963946
vt 0.713941 0.955940
vt 0.716161 0.963794
vt 0.716161 0.980399
vt 0.717944 0.982411
vt 0.709290 0.988890
vt 0.722591 0.939550
vt 0.722591 0.939550
vt 0.717944 0.969617
vt 0.717944 0.969617
vt 0.674598 0.963946
vt 0.674944 0.937491
vt 0.667841 0.935895
vt 0.668511 0.955940
vt 0.714611 0.935895
vt 0.707509 0.937491
vt 0.685714 0.939709
vt 0.685451 0.896531
vt 0.674129 0.897591
vt 0.666812 0.898218
vt 0.696738 0.939709
vt 0.696962 0.969905
vt 0.685491 0.969905
vt 0.719681 0.937399
vt 0.715641 0.898218
vt 0.708324 0.897591
vt 0.707936 0.858005
vt 0.696874 0.858608
vt 0.697002 0.896531
vt 0.696356 0.933658
vt 0.696655 0.937906
vt 0.691226 0.879230
vt 0.706901 0.863520
vt 0.685714 0.939709
vt 0.696738 0.939709
vt 0.696962 0.969905
vt 0.685491 0.969905
vt 0.714611 0.935895
vt 0.719681 0.937399
vt 0.724329 0.896531
vt 0.721047 0.897591
vt 0.707509 0.937491
vt 0.715641 0.898218
vt 0.721047 0.897591
vt 0.720144 0.858002
vt 0.723231 0.858602
vt 0.724329 0.896531
vt 0.667246 0.933591
vt 0.674182 0.937879
vt 0.675373 0.883038
vt 0.669173 0.879186
vt 0.717735 0.863500
vt 0.659862 0.939550
vt 0.659862 0.939550
vt 0.664509 0.969617
vt 0.664509 0.969617
vt 0.667841 0.935895
vt 0.674944 0.937491
vt 0.674598 0.963946
vt 0.668511 0.955940
vt 0.697002 0.896531
vt 0.708324 0.897591
vt 0.662772 0.937399
vt 0.666291 0.963794
vt 0.666812 0.898218
vt 0.674129 0.897591
vt 0.674516 0.858005
vt 0.685579 0.858608
vt 0.685451 0.896531
vt 0.697099 0.940489
vt 0.675551 0.863520
vt 0.662772 0.937399
vt 0.666291 0.963794
vt 0.658123 0.896531
vt 0.661405 0.897591
vt 0.685353 0.940489
vt 0.674182 0.937879
vt 0.661405 0.897591
vt 0.662309 0.858002
vt 0.659222 0.858602
vt 0.658123 0.896531
vt 0.664718 0.863500
vt 0.715207 0.933591
vt 0.720211 0.970020
vt 0.713279 0.879186
vt 0.686097 0.933658
vt 0.691226 0.970059
vt 0.685798 0.937906
vt 0.662242 0.970020
vt 0.697750 0.883328
vt 0.667246 0.933591
vt 0.715207 0.933591
vt 0.708270 0.937879
vt 0.707079 0.883038
vt 0.708270 0.937879
vn -0.9439 0.2970 -0.1444
vn -0.8550 0.5186 0.0000
vn -0.8003 0.4724 -0.3693
vn -0.8641 0.2771 -0.4201
vn -0.6959 0.7173 -0.0361
vn -0.6683 0.6513 -0.3594
vn -0.5730 0.5854 -0.5735
vn -0.6363 0.4355 -0.6368
vn -0.6851 0.2472 -0.6852
vn 0.1441 0.2978 -0.9437
vn -0.0000 0.5235 -0.8520
vn 0.3679 0.4756 -0.7991
vn 0.4199 0.2775 -0.8641
vn 0.0339 0.7259 -0.6870
vn 0.3564 0.6564 -0.6650
vn 0.5730 0.5854 -0.5735
vn 0.6363 0.4355 -0.6368
vn 0.6851 0.2472 -0.6852
vn 0.9439 0.2970 0.1444
vn 0.8550 0.5186 0.0000
vn 0.8003 0.4724 0.3693
vn 0.8641 0.2771 0.4201
vn 0.6959 0.7173 0.0361
vn 0.6683 0.6513 0.3594
vn 0.5730 0.5854 0.5735
vn 0.6363 0.4355 0.6368
vn 0.6851 0.2472 0.6852
vn -0.1441 0.2978 0.9437
vn 0.0000 0.5235 0.8520
vn -0.3679 0.4756 0.7991
vn -0.4199 0.2775 0.8641
vn -0.0339 0.7259 0.6870
vn -0.3564 0.6564 0.6650
vn -0.5730 0.5854 0.5735
vn -0.6363 0.4355 0.6368
vn -0.6851 0.2472 0.6852
vn 0.0700 -0.9951 0.0703
vn 0.2563 -0.9639 0.0724
vn 0.2469 -0.9371 0.2467
vn 0.0708 -0.9652 0.2516
vn 0.5921 -0.8005 0.0928
vn 0.6000 -0.7377 0.3095
vn 0.5531 -0.6230 0.5531
vn 0.3060 -0.7431 0.5951
vn 0.0905 -0.8087 0.5812
vn 0.0203 0.9994 -0.0280
vn -0.4186 0.9079 -0.0222
vn -0.3980 0.8265 0.3982
vn 0.0208 0.9109 0.4121
vn -0.6959 0.7173 0.0361
vn -0.6683 0.6513 0.3594
vn 0.4186 0.9079 -0.0223
vn 0.3980 0.8265 0.3982
vn -0.0203 0.9994 -0.0280
vn -0.0208 0.9109 0.4121
vn 0.0339 0.7259 0.6870
vn 0.3564 0.6564 0.6650
vn -0.0000 0.9206 0.3905
vn -0.0000 0.9937 0.1120
vn 0.3980 0.8265 -0.3982
vn 0.6683 0.6513 -0.3594
vn -0.0208 0.9109 -0.4121
vn -0.0203 0.9994 0.0279
vn 0.4186 0.9079 0.0223
vn 0.6959 0.7173 -0.0361
vn -0.0700 -0.9951 0.0703
vn -0.0700 -0.9951 -0.0703
vn 0.0700 -0.9951 -0.0703
vn -0.0000 0.7818 -0.6236
vn -0.0000 0.9206 -0.3904
vn -0.0000 0.9938 -0.1116
vn -0.0339 0.7259 -0.6870
vn -0.3564 0.6564 -0.6650
vn -0.3980 0.8265 -0.3982
vn 0.0208 0.9109 -0.4121
vn -0.4186 0.9079 0.0222
vn 0.0203 0.9994 0.0279
vn -0.2563 -0.9639 0.0724
vn -0.2563 -0.9639 -0.0724
vn -0.5921 -0.8005 0.0928
vn -0.2469 -0.9371 0.2467
vn -0.6000 -0.7377 0.3095
vn -0.0708 -0.9652 0.2516
vn -0.0905 -0.8087 0.5812
vn -0.3060 -0.7431 0.5951
vn -0.3060 -0.7431 -0.5951
vn -0.2469 -0.9371 -0.2467
vn -0.6000 -0.7377 -0.3095
vn -0.0905 -0.8087 -0.5812
vn -0.0708 -0.9652 -0.2516
vn -0.5921 -0.8005 -0.0928
vn -0.0000 1.0000 0.0001
vn -0.1142 0.9935 -0.0000
vn 0.0905 -0.8087 -0.5812
vn 0.0708 -0.9652 -0.2516
vn 0.3060 -0.7431 -0.5951
vn 0.2469 -0.9371 -0.2467
vn 0.5531 -0.6230 -0.5531
vn 0.6000 -0.7377 -0.3095
vn 0.5921 -0.8005 -0.0928
vn 0.2563 -0.9639 -0.0724
vn 0.8953 -0.4295 -0.1185
vn 0.8953 -0.4295 0.1185
vn -0.3788 -0.3768 0.8453
vn -0.6710 -0.3128 0.6723
vn -0.5531 -0.6230 0.5531
vn 0.6710 -0.3128 0.6723
vn 0.3788 -0.3768 0.8453
vn -0.1174 -0.4373 0.8916
vn -0.1389 -0.0318 0.9898
vn -0.4408 -0.0337 0.8970
vn -0.7066 -0.0358 0.7067
vn 0.1174 -0.4373 0.8916
vn 0.8469 -0.3710 0.3809
vn 0.7066 -0.0358 0.7067
vn 0.4408 -0.0337 0.8970
vn 0.4199 0.2775 0.8641
vn 0.1441 0.2978 0.9437
vn 0.1389 -0.0318 0.9898
vn 0.0000 0.7818 0.6236
vn 0.3679 0.4756 0.7991
vn -0.1174 -0.4373 -0.8916
vn 0.1174 -0.4373 -0.8916
vn 0.6710 -0.3128 -0.6723
vn 0.8469 -0.3710 -0.3809
vn 0.9898 -0.0314 0.1390
vn 0.8969 -0.0335 0.4409
vn 0.3788 -0.3768 -0.8453
vn 0.7066 -0.0358 -0.7067
vn 0.8969 -0.0335 -0.4409
vn 0.8641 0.2771 -0.4201
vn 0.9439 0.2970 -0.1444
vn 0.9898 -0.0314 -0.1390
vn -0.3986 0.9171 -0.0000
vn -0.6341 0.7732 -0.0000
vn 0.8003 0.4724 -0.3693
vn -0.8953 -0.4295 0.1185
vn -0.8953 -0.4295 -0.1185
vn -0.6710 -0.3128 -0.6723
vn -0.3788 -0.3768 -0.8453
vn -0.5531 -0.6230 -0.5531
vn 0.1389 -0.0318 -0.9898
vn 0.4408 -0.0337 -0.8970
vn -0.8469 -0.3710 -0.3809
vn -0.7066 -0.0358 -0.7067
vn -0.4408 -0.0337 -0.8970
vn -0.4199 0.2775 -0.8641
vn -0.1441 0.2978 -0.9437
vn -0.1389 -0.0318 -0.9898
vn -0.3679 0.4756 -0.7991
vn -0.8469 -0.3710 0.3809
vn -0.9898 -0.0314 -0.1390
vn -0.8969 -0.0335 -0.4409
vn -0.8969 -0.0335 0.4409
vn -0.8641 0.2771 0.4201
vn -0.9439 0.2970 0.1444
vn -0.9898 -0.0314 0.1390
vn -0.8003 0.4724 0.3693
vn 0.6341 0.7732 -0.0000
vn 0.1138 0.9935 0.0000
vn 0.3985 0.9172 -0.0000
usemtl tiny_treats_1
s 1
f 56/1/1 124/2/2 125/3/3 120/4/4
f 124/2/2 14/5/5 59/6/6 125/3/3
f 125/3/3 59/6/6 4/7/7 69/8/8
f 120/4/4 125/3/3 69/8/8 15/9/9
f 52/10/10 117/11/11 126/12/12 113/13/13
f 117/11/11 20/14/14 61/15/15 126/12/12
f 126/12/12 61/15/15 8/16/16 73/17/17
f 113/13/13 126/12/12 73/17/17 21/18/18
f 48/19/19 110/20/20 127/21/21 106/22/22
f 110/20/20 26/23/23 63/24/24 127/21/21
f 127/21/21 63/24/24 6/25/25 77/26/26
f 106/22/22 127/21/21 77/26/26 27/27/27
f 44/28/28 103/29/29 128/30/30 99/31/31
f 103/29/29 32/32/32 65/33/33 128/30/30
f 128/30/30 65/33/33 2/34/34 58/35/35
f 99/31/31 128/30/30 58/35/35 12/36/36
f 40/37/37 96/38/38 129/39/39 91/40/40
f 96/38/38 23/41/41 75/42/42 129/39/39
f 75/43/42 5/44/43 64/45/44
f 91/40/40 129/39/39 64/46/44 30/47/45
f 36/48/46 88/49/47 130/50/48 83/51/49
f 88/49/47 13/52/50 68/53/51 130/50/48
f 130/50/48 68/53/51 2/34/34 65/33/33
f 83/51/49 130/50/48 65/33/33 32/32/32
f 26/23/23 86/54/52 131/55/53 63/24/24
f 86/54/52 34/56/54 81/57/55 131/55/53
f 131/55/53 81/57/55 31/58/56 80/59/57
f 63/24/24 131/55/53 80/59/57 6/25/25
f 36/60/46 83/61/49 150/62/58 160/63/59
f 8/16/16 61/15/15 132/64/60 76/65/61
f 61/15/15 20/14/14 82/66/62 132/64/60
f 132/64/60 82/66/62 33/67/63 85/68/64
f 76/65/61 132/64/60 85/68/64 25/69/65
f 40/37/37 38/70/66 37/71/67 39/72/68
f 20/73/14 117/74/11 152/75/69
f 33/76/63 82/77/62 153/78/70 158/79/71
f 19/80/72 72/81/73 133/82/74 84/83/75
f 72/81/73 4/7/7 59/6/6 133/82/74
f 133/82/74 59/6/6 14/5/5 87/84/76
f 84/83/75 133/82/74 87/84/76 35/85/77
f 82/77/62 20/73/14 152/75/69 153/78/70
f 37/71/67 38/70/66 94/86/78 93/87/79
f 10/88/80 94/86/78 134/89/81 57/90/82
f 94/86/78 38/70/66 89/91/83 134/89/81
f 134/89/81 89/91/83 29/92/84 79/93/85
f 57/90/82 134/89/81 79/93/85
f 40/37/37 91/40/40 89/91/83 38/70/66
f 89/91/83 91/40/40 30/47/45 29/92/84
f 60/94/86 135/95/87 66/96/88
f 60/94/86 18/97/89 90/98/90 135/95/87
f 135/95/87 90/98/90 37/71/67 93/87/79
f 66/96/88 135/95/87 93/87/79 9/99/91
f 36/60/46 149/100/92 161/101/93
f 117/74/11 19/102/72 152/75/69
f 17/103/94 92/104/95 90/98/90 18/97/89
f 93/87/79 94/86/78 10/88/80 9/99/91
f 90/98/90 92/104/95 39/72/68 37/71/67
f 17/103/94 71/105/96 136/106/97 92/104/95
f 71/107/96 7/108/98 62/109/99
f 136/106/97 62/110/99 24/111/100 95/112/101
f 92/104/95 136/106/97 95/112/101 39/72/68
f 23/41/41 96/38/38 95/112/101 24/111/100
f 45/113/102 46/114/103 23/115/41 24/116/100
f 79/117/85 97/118/104 11/119/105 1/120/106
f 28/121/107 98/122/108 64/45/44 5/44/43
f 42/123/109 102/124/110 137/125/111 97/118/104
f 102/124/110 44/28/28 99/31/31 137/125/111
f 137/125/111 99/31/31 12/36/36 67/126/112
f 97/118/104 137/125/111 67/126/112 11/119/105
f 64/45/44 98/122/108 41/127/113 30/128/45
f 41/127/113 42/123/109 29/129/84 30/128/45
f 46/114/103 104/130/114 75/43/42 23/115/41
f 28/121/107 78/131/115 138/132/116 98/122/108
f 78/131/115 27/27/27 100/133/117 138/132/116
f 138/132/116 100/133/117 43/134/118 101/135/119
f 98/122/108 138/132/116 101/135/119 41/127/113
f 43/134/118 44/28/28 102/124/110 101/135/119
f 31/136/56 81/137/55 150/62/58 151/138/120
f 27/27/27 77/26/26 139/139/121 100/133/117
f 77/26/26 6/25/25 80/59/57 139/139/121
f 139/139/121 80/59/57 31/58/56 103/29/29
f 100/133/117 139/139/121 103/29/29 43/134/118
f 101/135/119 102/124/110 42/123/109 41/127/113
f 49/140/122 50/141/123 17/142/94 18/143/89
f 75/43/42 104/130/114 28/121/107 5/44/43
f 22/144/124 105/145/125 62/109/99 7/108/98
f 46/114/103 109/146/126 140/147/127 104/130/114
f 109/146/126 48/19/19 106/22/22 140/147/127
f 140/147/127 106/22/22 27/27/27 78/131/115
f 104/130/114 140/147/127 78/131/115 28/121/107
f 62/109/99 105/145/125 45/113/102 24/116/100
f 95/112/101 96/38/38 40/37/37 39/72/68
f 50/141/123 111/148/128 71/107/96 17/142/94
f 22/144/124 74/149/129 141/150/130 105/145/125
f 74/149/129 21/18/18 107/151/131 141/150/130
f 141/150/130 107/151/131 47/152/132 108/153/133
f 105/145/125 141/150/130 108/153/133 45/113/102
f 47/152/132 48/19/19 109/146/126 108/153/133
f 13/154/50 88/155/47 157/156/134 156/157/135
f 21/18/18 73/17/17 142/158/136 107/151/131
f 73/17/17 8/16/16 76/65/61 142/158/136
f 142/158/136 76/65/61 25/69/65 110/20/20
f 107/151/131 142/158/136 110/20/20 47/152/132
f 108/153/133 109/146/126 46/114/103 45/113/102
f 53/159/137 54/160/138 9/161/91 10/162/80
f 71/107/96 111/148/128 22/144/124 7/108/98
f 16/163/139 112/164/140 60/165/86 3/166/141
f 50/141/123 116/167/142 143/168/143 111/148/128
f 116/167/142 52/10/10 113/13/13 143/168/143
f 143/168/143 113/13/13 21/18/18 74/149/129
f 111/148/128 143/168/143 74/149/129 22/144/124
f 60/165/86 112/164/140 49/140/122 18/143/89
f 103/29/29 44/28/28 43/134/118
f 54/160/138 118/169/144 66/170/88 9/161/91
f 16/163/139 70/171/145 144/172/146 112/164/140
f 70/171/145 15/9/9 114/173/147 144/172/146
f 144/172/146 114/173/147 51/174/148 115/175/149
f 112/164/140 144/172/146 115/175/149 49/140/122
f 51/174/148 52/10/10 116/167/142 115/175/149
f 34/176/54 149/100/92 160/63/59
f 15/9/9 69/8/8 145/177/150 114/173/147
f 69/8/8 4/7/7 72/81/73 145/177/150
f 145/177/150 72/81/73 19/80/72 117/11/11
f 114/173/147 145/177/150 117/11/11 51/174/148
f 110/20/20 48/19/19 47/152/132
f 115/175/149 116/167/142 50/141/123 49/140/122
f 66/170/88 118/169/144 16/163/139 3/166/141
f 1/120/106 11/119/105 119/178/151 57/179/82
f 54/160/138 123/180/152 146/181/153 118/169/144
f 123/180/152 56/1/1 120/4/4 146/181/153
f 146/181/153 120/4/4 15/9/9 70/171/145
f 118/169/144 146/181/153 70/171/145 16/163/139
f 57/179/82 119/178/151 53/159/137 10/162/80
f 35/182/77 87/183/76 157/156/134 161/101/93
f 117/11/11 52/10/10 51/174/148
f 11/119/105 67/126/112 147/184/154 119/178/151
f 67/126/112 12/36/36 121/185/155 147/184/154
f 147/184/154 121/185/155 55/186/156 122/187/157
f 119/178/151 147/184/154 122/187/157 53/159/137
f 55/186/156 56/1/1 123/180/152 122/187/157
f 12/36/36 58/35/35 148/188/158 121/185/155
f 58/35/35 2/34/34 68/53/51 148/188/158
f 148/188/158 68/53/51 13/52/50 124/2/2
f 121/185/155 148/188/158 124/2/2 55/186/156
f 122/187/157 123/180/152 54/160/138 53/159/137
f 42/123/109 97/118/104 79/117/85 29/129/84
f 26/189/23 110/190/20 155/191/159
f 124/2/2 56/1/1 55/186/156
f 83/61/49 32/192/32 151/138/120 150/62/58
f 103/193/29 31/136/56 151/138/120
f 19/102/72 84/194/75 153/78/70 152/75/69
f 124/195/2 13/154/50 156/157/135
f 35/182/77 149/100/92 158/79/71
f 32/192/32 103/193/29 151/138/120
f 33/76/63 149/100/92 159/196/160
f 14/197/5 124/195/2 156/157/135
f 25/198/65 85/199/64 154/200/161 155/191/159
f 34/176/54 86/201/52 154/200/161 159/196/160
f 110/190/20 25/198/65 155/191/159
f 86/201/52 26/189/23 155/191/159 154/200/161
f 87/183/76 14/197/5 156/157/135 157/156/134
f 84/194/75 35/182/77 158/79/71 153/78/70
f 149/100/92 33/76/63 158/79/71
f 149/100/92 34/176/54 159/196/160
f 85/199/64 33/76/63 159/196/160 154/200/161
f 149/100/92 36/60/46 160/63/59
f 81/137/55 34/176/54 160/63/59 150/62/58
f 88/155/47 36/60/46 161/101/93 157/156/134
f 149/100/92 35/182/77 161/101/93
f 129/39/39 75/42/42 64/46/44
f 136/106/97 71/105/96 62/110/99
f 3/166/141 60/165/86 66/170/88
f 1/120/106 57/179/82 79/117/85
